<?xml version="1.0" standalone="no"?>
<!DOCTYPE svg PUBLIC "-//W3C//DTD SVG 20010904//EN"
 "http://www.w3.org/TR/2001/REC-SVG-20010904/DTD/svg10.dtd">
<svg version="1.0" xmlns="http://www.w3.org/2000/svg"
 width="489.000000pt" height="81.000000pt" viewBox="0 0 489.000000 81.000000"
 preserveAspectRatio="xMidYMid meet">

<g transform="translate(0.000000,81.000000) scale(0.100000,-0.100000)"
fill="#000000" stroke="none">
<path d="M4178 618 c-20 -7 -28 -16 -28 -33 0 -13 4 -27 10 -30 5 -3 8 0 5 7
-8 21 11 40 36 36 15 -2 26 -12 30 -28 4 -14 7 -18 8 -10 1 25 -10 58 -22 63
-7 2 -24 0 -39 -5z"/>
<path d="M4237 526 c-5 -13 -14 -17 -32 -14 -20 4 -23 3 -14 -8 6 -8 17 -14
24 -14 17 0 38 26 33 42 -3 7 -7 5 -11 -6z"/>
<path d="M4265 532 c21 -42 -54 -83 -83 -46 -13 17 -14 5 -8 -98 3 -64 8 -122
11 -130 4 -9 27 -13 75 -14 70 -2 70 -2 101 37 17 21 37 39 45 39 25 0 15 21
-40 94 -60 78 -111 138 -101 118z"/>
<path d="M4064 516 c-3 -8 -4 -25 -1 -38 4 -20 4 -20 6 5 1 25 5 28 28 25 19
-2 29 -10 33 -28 l6 -25 8 24 c6 18 4 28 -10 38 -24 17 -63 17 -70 -1z"/>
<path d="M510 440 c0 -56 3 -70 15 -70 9 0 15 9 15 25 0 21 5 25 30 25 20 0
30 5 30 15 0 10 -10 15 -30 15 -20 0 -30 5 -30 15 0 10 11 15 35 15 24 0 35 5
35 15 0 11 -12 15 -50 15 l-50 0 0 -70z"/>
<path d="M790 440 c0 -56 3 -70 15 -70 12 0 15 14 15 70 0 56 -3 70 -15 70
-12 0 -15 -14 -15 -70z"/>
<path d="M1010 440 c0 -56 3 -70 15 -70 11 0 15 12 15 43 l1 42 37 -43 c53
-60 62 -56 62 28 0 56 -3 70 -15 70 -11 0 -15 -11 -15 -40 0 -22 -3 -40 -7
-40 -5 0 -21 18 -36 40 -43 61 -57 54 -57 -30z"/>
<path d="M1330 440 l0 -70 40 0 c46 0 90 34 90 70 0 36 -44 70 -90 70 l-40 0
0 -70z m92 15 c14 -30 -3 -55 -38 -55 -21 0 -24 5 -24 40 0 36 2 40 25 40 17
0 29 -8 37 -25z"/>
<path d="M1655 460 c14 -27 25 -58 25 -70 0 -11 7 -20 15 -20 8 0 15 9 15 20
0 12 11 43 25 70 20 40 22 50 10 50 -8 0 -21 -13 -30 -30 -9 -16 -18 -30 -20
-30 -2 0 -11 14 -20 30 -9 17 -22 30 -30 30 -12 0 -10 -10 10 -50z"/>
<path d="M1956 489 c-17 -13 -26 -30 -26 -49 0 -33 40 -70 75 -70 37 0 68 32
68 70 0 62 -65 90 -117 49z m79 -49 c0 -29 -4 -36 -23 -38 -43 -6 -69 37 -40
66 7 7 24 12 38 10 21 -3 25 -8 25 -38z"/>
<path d="M2260 456 c0 -80 42 -110 98 -70 18 12 22 25 22 70 0 40 -4 54 -14
54 -11 0 -16 -15 -18 -52 -3 -49 -5 -53 -28 -53 -23 0 -25 4 -28 53 -2 37 -7
52 -18 52 -10 0 -14 -14 -14 -54z"/>
<path d="M2570 440 c0 -56 3 -70 15 -70 8 0 15 9 15 20 0 13 7 20 19 20 11 0
23 -9 26 -20 4 -11 15 -20 27 -20 19 0 19 1 5 24 -14 21 -14 26 -2 36 39 32
-2 80 -67 80 l-38 0 0 -70z m86 28 c8 -12 -24 -40 -41 -35 -5 2 -11 13 -13 25
-3 18 2 22 22 22 14 0 28 -5 32 -12z"/>
<path d="M2880 440 c0 -56 3 -70 15 -70 9 0 15 9 15 25 0 21 5 25 30 25 20 0
30 5 30 15 0 10 -10 15 -30 15 -42 0 -40 28 2 32 55 5 46 28 -11 28 l-51 0 0
-70z"/>
<path d="M3160 440 c0 -56 3 -70 15 -70 12 0 15 14 15 70 0 56 -3 70 -15 70
-12 0 -15 -14 -15 -70z"/>
<path d="M3380 440 c0 -56 3 -70 15 -70 11 0 15 12 15 43 l1 42 37 -43 c53
-60 62 -56 62 28 0 56 -3 70 -15 70 -11 0 -15 -11 -15 -40 0 -22 -3 -40 -7
-40 -5 0 -21 18 -36 40 -43 61 -57 54 -57 -30z"/>
<path d="M3712 498 c-23 -23 -13 -48 23 -64 46 -19 46 -38 0 -31 -43 7 -55 -9
-20 -25 38 -17 80 0 80 32 0 19 -8 29 -32 39 -41 18 -43 35 -3 29 34 -5 51 9
29 23 -20 13 -63 11 -77 -3z"/>
<path d="M4116 434 c-5 -12 -14 -15 -36 -11 -23 5 -28 3 -23 -8 8 -22 51 -18
63 6 7 11 10 23 7 25 -2 3 -7 -3 -11 -12z"/>
<path d="M3993 363 c-43 -72 -83 -149 -83 -158 0 -3 9 -5 21 -5 11 0 32 -13
47 -29 36 -38 50 -41 94 -24 22 9 49 12 64 9 l27 -7 -7 102 c-4 56 -10 115
-13 131 -5 24 -7 26 -17 12 -17 -23 -68 -15 -82 14 -11 22 -13 20 -51 -45z"/>
</g>
</svg>
